<?xml version="1.0" encoding="iso-8859-1"?>
<!-- Generator: Adobe Illustrator 19.0.0, SVG Export Plug-In . SVG Version: 6.00 Build 0)  -->
<svg version="1.1" id="Capa_1" xmlns="http://www.w3.org/2000/svg" xmlns:xlink="http://www.w3.org/1999/xlink" x="0px" y="0px"
	 viewBox="0 0 512 512" style="enable-background:new 0 0 512 512;" xml:space="preserve">
<circle style="fill:#FFB4C8;" cx="256" cy="256" r="256"/>
<path style="fill:#FF96B4;" d="M510.239,286.02l-94.456-94.456l-80.424,131.313L131.216,118.734L82.771,167.18l195.461,195.461
	l-9.048,6.298l110.972,110.973C450.493,440.826,500.477,369.572,510.239,286.02z"/>
<path style="fill:#FFD7CD;" d="M415.783,191.564h-98.068c-7.324,0-14.568,1.535-21.263,4.505l0,0
	c-37.172,15.411-63.331,52.024-63.38,94.757c-0.063,55.91,45.299,101.999,101.204,102.778
	c57.374,0.8,104.134-45.469,104.134-102.659c0-11.026-1.745-21.643-4.962-31.598C433.446,259.337,419.622,214.216,415.783,191.564z"
	/>
<path style="fill:#FAB9AF;" d="M438.411,290.945c0-11.026-1.745-21.643-4.962-31.598c-0.003-0.01-13.827-45.131-17.666-67.782
	h-77.688V393.58C393.71,392.328,438.411,346.861,438.411,290.945z"/>
<circle style="fill:#C69C6D;" cx="338.52" cy="288.67" r="42.909"/>
<g>
	<path style="fill:#A67C52;" d="M338.522,245.758c-0.143,0-0.284,0.009-0.427,0.011v85.797c0.143,0.001,0.284,0.011,0.427,0.011
		c23.698,0,42.909-19.211,42.909-42.909S362.221,245.758,338.522,245.758z"/>
	<circle style="fill:#A67C52;" cx="338.52" cy="288.67" r="18.14"/>
</g>
<path style="fill:#8C6239;" d="M338.522,270.526c-0.144,0-0.284,0.018-0.427,0.021v36.241c0.143,0.003,0.283,0.021,0.427,0.021
	c10.019,0,18.142-8.122,18.142-18.142S348.542,270.526,338.522,270.526z"/>
<rect x="89.982" y="147.396" transform="matrix(0.7071 0.7071 -0.7071 0.7071 156.3562 -43.6938)" style="fill:#B9EAFF;" width="81.879" height="38.991"/>
<g>
	
		<rect x="114.131" y="132.463" transform="matrix(-0.7071 0.7071 -0.7071 -0.7071 334.9849 208.0497)" style="fill:#91CDFF;" width="20.547" height="81.879"/>
	
		<rect x="93.087" y="102.942" transform="matrix(-0.7071 -0.7071 0.7071 -0.7071 75.8039 305.7928)" style="fill:#91CDFF;" width="16.293" height="68.509"/>
</g>
<rect x="71.84" y="140.785" transform="matrix(-0.7071 0.7071 -0.7071 -0.7071 258.0875 190.9588)" style="fill:#64AFFF;" width="35.31" height="16.293"/>
<rect x="210.748" y="288.072" transform="matrix(-0.7071 -0.7071 0.7071 -0.7071 235.0313 690.2077)" style="fill:#B9EAFF;" width="99.429" height="16.711"/>
<g>
	
		<rect x="253.165" y="249.289" transform="matrix(-0.7071 0.7071 -0.7071 -0.7071 651.6377 328.0903)" style="fill:#91CDFF;" width="9.408" height="99.429"/>
	
		<rect x="209.621" y="250.168" transform="matrix(-0.7071 -0.7071 0.7071 -0.7071 205.504 618.8798)" style="fill:#91CDFF;" width="42.611" height="33.421"/>
</g>
<rect x="216.498" y="251.12" transform="matrix(-0.7071 0.7071 -0.7071 -0.7071 577.3796 305.6919)" style="fill:#64AFFF;" width="17.762" height="42.611"/>
<rect x="110.69" y="186.226" transform="matrix(-0.7071 -0.7071 0.7071 -0.7071 159.0903 506.8594)" style="fill:#FFFFFF;" width="147.659" height="68.509"/>
<rect x="155.131" y="158.394" transform="matrix(-0.7071 0.7071 -0.7071 -0.7071 459.1712 274.2522)" style="fill:#E0E0E0;" width="35.31" height="147.659"/>
<g>
	
		<rect x="127.423" y="190.62" transform="matrix(-0.7071 -0.7071 0.7071 -0.7071 82.4313 436.4144)" style="fill:#91CDFF;" width="8.355" height="21.03"/>
	
		<rect x="137.189" y="210.104" transform="matrix(-0.7071 0.7071 -0.7071 -0.7071 415.8546 256.3109)" style="fill:#91CDFF;" width="35.31" height="8.355"/>
	
		<rect x="163.806" y="227.01" transform="matrix(-0.7071 -0.7071 0.7071 -0.7071 118.8094 524.2623)" style="fill:#91CDFF;" width="8.355" height="21.03"/>
	
		<rect x="173.581" y="246.494" transform="matrix(-0.7071 0.7071 -0.7071 -0.7071 503.7125 292.699)" style="fill:#91CDFF;" width="35.31" height="8.355"/>
	
		<rect x="200.213" y="263.41" transform="matrix(-0.7071 -0.7071 0.7071 -0.7071 155.2216 612.1444)" style="fill:#91CDFF;" width="8.355" height="21.03"/>
</g>
<g>
</g>
<g>
</g>
<g>
</g>
<g>
</g>
<g>
</g>
<g>
</g>
<g>
</g>
<g>
</g>
<g>
</g>
<g>
</g>
<g>
</g>
<g>
</g>
<g>
</g>
<g>
</g>
<g>
</g>
</svg>
