<?xml version="1.0" encoding="iso-8859-1"?>
<!-- Generator: Adobe Illustrator 19.0.0, SVG Export Plug-In . SVG Version: 6.00 Build 0)  -->
<svg version="1.1" id="Capa_1" xmlns="http://www.w3.org/2000/svg" xmlns:xlink="http://www.w3.org/1999/xlink" x="0px" y="0px"
	 viewBox="0 0 511.997 511.997" style="enable-background:new 0 0 511.997 511.997;" xml:space="preserve">
<path style="fill:#FAEBE1;" d="M425.216,433.897H312.404v-92.28l0,0c18.562-12.704,34.841-28.446,48.153-46.565h-4.764v-52.067
	h32.108c5.823-16.809,9.372-34.321,10.552-52.067l0.364-25.66c0.208-14.379-11.281-26.198-25.66-26.407c-0.121,0-0.252,0-0.373,0
	H130.517c-14.379,0-26.033,11.654-26.033,26.033c0,0.113,0,0.234,0,0.347l0.347,25.686c4.217,60.745,35.935,116.231,86.127,150.699
	l0,0v92.28H78.103c-43.137,0-78.1,34.963-78.1,78.1h503.314C503.316,468.86,468.353,433.897,425.216,433.897z"/>
<g>
	<polygon style="fill:#7BCBDB;" points="387.884,242.985 355.793,242.985 355.793,269.018 355.793,295.052 360.558,295.052 
		459.927,295.052 459.927,269.018 459.927,242.985 	"/>
	<path style="fill:#7BCBDB;" d="M364.237,52.307L364.237,52.307C311.684-9.904,218.658-17.74,156.438,34.812
		c-33.193,28.029-52.327,69.275-52.301,112.716v29.505c0,1.736,0.061,3.471,0.13,5.207c0.069,1.449,0.148,2.89,0.208,4.339
		c94.649-13.251,182.408-56.953,250.008-124.518L364.237,52.307z"/>
	<path style="fill:#7BCBDB;" d="M364.202,52.342l-9.719,9.719c-5.701,5.701-11.602,11.168-17.581,16.488
		c-0.868,0.772-1.736,1.536-2.603,2.291c-28.993,25.591-61.239,47.242-95.899,64.389c28.524,17.885,60.363,29.826,93.608,35.119
		l66.429,10.57l0.746-13.885v-29.505C399.217,112.644,386.817,78.896,364.202,52.342z"/>
</g>
<g style="opacity:0.13;">
	<path d="M364.202,52.342l-9.719,9.719c-5.701,5.701-11.602,11.168-17.581,16.488c-0.868,0.772-1.736,1.536-2.603,2.291
		c-28.993,25.591-61.239,47.242-95.899,64.389c28.524,17.885,60.363,29.826,93.608,35.119l66.429,10.57l0.746-13.885v-29.505
		C399.217,112.644,386.817,78.896,364.202,52.342z"/>
</g>
<g style="opacity:0.13;">
	<path d="M218.684,374.384c20.514,9.771,44.309,9.927,64.953,0.443c10.032-4.686,19.647-10.205,28.767-16.488v-16.705
		c-9.103,6.291-18.709,11.802-28.732,16.488c-20.645,9.485-44.439,9.329-64.953-0.434c-9.676-4.591-18.961-9.953-27.769-16.037l0,0
		v16.705C199.749,364.439,209.025,369.794,218.684,374.384z"/>
</g>
<g>
	<polygon style="fill:#495052;" points="321.082,277.696 355.793,277.696 355.793,260.34 338.438,260.34 	"/>
	<polygon style="fill:#495052;" points="494.639,242.985 494.639,260.34 459.927,260.34 459.927,277.696 494.639,277.696 
		494.639,295.052 511.994,295.052 511.994,242.985 	"/>
</g>
<g style="opacity:0.17;">
	<path d="M228.169,492.099l-14.813-14.813h-74.508V459.93h78.1c2.3,0,4.512,0.911,6.135,2.543l17.356,17.356L228.169,492.099z"/>
</g>
<g style="opacity:0.17;">
	<path d="M275.15,492.099l-12.27-12.27l17.356-17.356c1.623-1.631,3.836-2.543,6.135-2.543h78.1v17.356h-74.508L275.15,492.099z"/>
</g>
<g>
</g>
<g>
</g>
<g>
</g>
<g>
</g>
<g>
</g>
<g>
</g>
<g>
</g>
<g>
</g>
<g>
</g>
<g>
</g>
<g>
</g>
<g>
</g>
<g>
</g>
<g>
</g>
<g>
</g>
</svg>
