<?xml version="1.0" encoding="iso-8859-1"?>
<!-- Generator: Adobe Illustrator 19.0.0, SVG Export Plug-In . SVG Version: 6.00 Build 0)  -->
<svg version="1.1" id="Layer_1" xmlns="http://www.w3.org/2000/svg" xmlns:xlink="http://www.w3.org/1999/xlink" x="0px" y="0px"
	 viewBox="0 0 509.287 509.287" style="enable-background:new 0 0 509.287 509.287;" xml:space="preserve">
<circle style="fill:#4B5AA7;" cx="254.644" cy="254.644" r="254.644"/>
<path style="fill:#F7CFA2;" d="M254.644,509.287c65.441,0,125.118-24.752,170.215-65.102c20.005-68.493,37.976-168.18-1.017-231.587
	c-33.568-54.93-25.77-113.589-10.511-156.652C369.928,21.023,314.66,0,254.644,0S139.359,21.023,95.958,55.608
	c15.258,43.401,23.396,102.061-10.511,156.652c-38.993,63.407-21.023,163.094-1.017,231.587
	C129.526,484.535,189.203,509.287,254.644,509.287z"/>
<g>
	<path style="fill:#F0BA7A;" d="M254.644,509.287c1.695,0,3.391,0,5.086,0V327.544l61.372-61.372c2.034-2.034,2.034-5.086,0-7.121
		c-2.034-2.034-5.086-2.034-7.121,0l-59.338,59.338l-59.338-59.338c-2.034-2.034-5.086-2.034-7.121,0
		c-2.034,2.034-2.034,5.086,0,7.121l61.372,61.372v181.404C251.253,509.287,252.948,509.287,254.644,509.287z"/>
	<circle style="fill:#F0BA7A;" cx="254.644" cy="81.377" r="13.902"/>
</g>
<g>
</g>
<g>
</g>
<g>
</g>
<g>
</g>
<g>
</g>
<g>
</g>
<g>
</g>
<g>
</g>
<g>
</g>
<g>
</g>
<g>
</g>
<g>
</g>
<g>
</g>
<g>
</g>
<g>
</g>
</svg>
